<svg width="28" height="30" viewBox="0 0 28 30" fill="none" xmlns="http://www.w3.org/2000/svg">
<path d="M23.626 4.07203C22.355 2.78824 20.8432 1.76775 19.1773 1.06902C17.5114 0.370277 15.724 0.00700497 13.9174 0H13.8125C10.1492 0 6.63593 1.45524 4.04559 4.04559C1.45524 6.63593 0 10.1492 0 13.8125V21.25C0 22.0954 0.335825 22.9061 0.933597 23.5039C1.53137 24.1017 2.34212 24.4375 3.1875 24.4375H5.3125C6.15788 24.4375 6.96863 24.1017 7.5664 23.5039C8.16418 22.9061 8.5 22.0954 8.5 21.25V15.9375C8.5 15.0921 8.16418 14.2814 7.5664 13.6836C6.96863 13.0858 6.15788 12.75 5.3125 12.75H2.17281C2.37772 10.5346 3.20986 8.4235 4.57171 6.66414C5.93355 4.90478 7.76867 3.57004 9.86199 2.81638C11.9553 2.06271 14.2201 1.92134 16.3909 2.40883C18.5617 2.89632 20.5485 3.99248 22.1186 5.56883C24.0376 7.49766 25.218 10.0394 25.4535 12.75H22.3125C21.4671 12.75 20.6564 13.0858 20.0586 13.6836C19.4608 14.2814 19.125 15.0921 19.125 15.9375V21.25C19.125 22.0954 19.4608 22.9061 20.0586 23.5039C20.6564 24.1017 21.4671 24.4375 22.3125 24.4375H25.5C25.5 25.2829 25.1642 26.0936 24.5664 26.6914C23.9686 27.2892 23.1579 27.625 22.3125 27.625H14.875C14.5932 27.625 14.323 27.7369 14.1237 27.9362C13.9244 28.1355 13.8125 28.4057 13.8125 28.6875C13.8125 28.9693 13.9244 29.2395 14.1237 29.4388C14.323 29.6381 14.5932 29.75 14.875 29.75H22.3125C23.7215 29.75 25.0727 29.1903 26.069 28.194C27.0653 27.1977 27.625 25.8465 27.625 24.4375V13.8125C27.6319 12.0057 27.2823 10.2153 26.596 8.54381C25.9098 6.87237 24.9005 5.35275 23.626 4.07203ZM5.3125 14.875C5.59429 14.875 5.86454 14.9869 6.0638 15.1862C6.26306 15.3855 6.375 15.6557 6.375 15.9375V21.25C6.375 21.5318 6.26306 21.802 6.0638 22.0013C5.86454 22.2006 5.59429 22.3125 5.3125 22.3125H3.1875C2.90571 22.3125 2.63546 22.2006 2.4362 22.0013C2.23694 21.802 2.125 21.5318 2.125 21.25V14.875H5.3125ZM22.3125 22.3125C22.0307 22.3125 21.7605 22.2006 21.5612 22.0013C21.3619 21.802 21.25 21.5318 21.25 21.25V15.9375C21.25 15.6557 21.3619 15.3855 21.5612 15.1862C21.7605 14.9869 22.0307 14.875 22.3125 14.875H25.5V22.3125H22.3125Z" fill="#222222"/>
</svg>
